<svg xmlns="http://www.w3.org/2000/svg" viewBox="270 275 545 185" role="img" aria-labelledby="title">
  <title id="title">Google Pay</title>
  <path fill="#5f6368" d="M529 384v61h-19V295h51c13 0 24 4 33 13 9 8 14 19 14 31 0 13-5 24-14 32-9 9-20 13-33 13h-32Zm0-70v52h32c8 0 14-3 19-8 5-5 8-11 8-18s-3-13-8-18c-5-5-11-8-19-8h-32Zm129 25c14 0 25 4 34 11 8 8 12 18 12 32v63h-18v-14h-1c-8 11-19 17-32 17-11 0-21-3-28-10-8-7-12-15-12-25 0-11 4-19 12-25 8-7 19-10 32-10 12 0 21 2 29 7v-5c0-7-3-12-8-17s-12-7-19-7c-11 0-19 5-25 14l-17-11c9-13 23-20 41-20Zm-25 74c0 5 2 9 6 13 5 3 10 5 15 5 8 0 16-3 22-9 6-6 10-13 10-21-6-5-15-7-26-7-8 0-14 2-19 5-5 4-8 9-8 14Zm175-71-64 148h-20l24-52-42-96h21l30 74h1l29-74h21Z"/>
  <path fill="#4285F4" d="M453 372c0-6-1-12-2-18h-80v33h46c-2 11-8 20-17 27v21h28c16-15 25-37 25-63Z"/>
  <path fill="#34A853" d="M400 414c-8 5-18 8-29 8-22 0-41-15-48-36h-29v22c14 28 43 48 77 48 23 0 43-8 57-21l-28-21Z"/>
  <path fill="#FABB05" d="M320 370c0-6 1-11 3-16v-22h-29c-6 11-9 24-9 38s3 27 9 38l29-22c-2-5-3-10-3-16Z"/>
  <path fill="#E94235" d="M371 318c13 0 24 4 33 13l24-24c-15-14-34-23-57-23-34 0-63 20-77 48l29 22c7-21 26-36 48-36Z"/>
</svg>
